# xmcd CD database file
#
# Track frame offsets:
#	150
#	25309
#	34872
#	44152
#	56958
#	77427
#	93274
#	115931
#	125056
#	131361
#	150505
#	169329
#	183625
#	198630
#	224220
#	246508
#	260139
#	279546
#
# Disc length: 4670 seconds
#
# Revision: 0
# Processed by: cddbd v1.5.2PL0 Copyright (c) Steve Scherf et al.
# Submitted via: CDex 2.14
#
DISCID=1e123c12
DTITLE=Eric Clapton - Further On Up The Crossroads CD1
DYEAR=1993
DGENRE=Blues
TTITLE0=I Got My Mojo Working (closing jam)
TTITLE1=Louise (live tv)
TTITLE2=Key To Love (Saturday Club radio)
TTITLE3=Lawdy Mama (live)
TTITLE4=Meet Me (In The Bottom) (live)
TTITLE5=Crossroads (live)
TTITLE6=Steppin' Out (live)
TTITLE7=Lawdy Mama (alternate studio take)
TTITLE8=Falstaff Beer Commercial (unedited)
TTITLE9=White Room (early take)
TTITLE10=Sunshine Of Your Love (Top Gear radio)
TTITLE11=Take It Back (Top Gear radio)
TTITLE12=Change Of Address (instrumental)
TTITLE13=Can't Find My Way Home (electric version)
TTITLE14=Cold Turkey (alternate take)
TTITLE15=Poor Elijah (Beat Club tv)
TTITLE16=Where There's Will There's A Way (Beat Club tv)
TTITLE17=Key Of E Jam (unreleased)
EXTD=YEAR: 1993
EXTT0=
EXTT1=
EXTT2=
EXTT3=
EXTT4=
EXTT5=
EXTT6=
EXTT7=
EXTT8=
EXTT9=
EXTT10=
EXTT11=
EXTT12=
EXTT13=
EXTT14=
EXTT15=
EXTT16=
EXTT17=
PLAYORDER=
